<svg xmlns="http://www.w3.org/2000/svg" width="29.275" height="29.275" viewBox="0 0 29.275 29.275">
  <path id="Icon_awesome-arrow-circle-right" data-name="Icon awesome-arrow-circle-right" d="M15.2.563A14.637,14.637,0,1,1,.563,15.2,14.635,14.635,0,0,1,15.2.563ZM13.494,9.038l4.456,4.273H7.173a1.413,1.413,0,0,0-1.417,1.417v.944a1.413,1.413,0,0,0,1.417,1.417H17.95l-4.456,4.273a1.418,1.418,0,0,0-.024,2.024l.649.643a1.411,1.411,0,0,0,2,0L23.953,16.2a1.411,1.411,0,0,0,0-2L16.12,6.364a1.411,1.411,0,0,0-2,0l-.649.643a1.425,1.425,0,0,0,.024,2.03Z" transform="translate(-0.563 -0.563)" fill="#802727"/>
</svg>
