<svg xmlns="http://www.w3.org/2000/svg" width="29.062" height="27.414" viewBox="0 0 29.062 27.414">
  <path id="Icon_ionic-md-arrow-round-back" data-name="Icon ionic-md-arrow-round-back" d="M32.168,17.394H14.495l6.855-6.557a2.732,2.732,0,0,0,0-3.733,2.442,2.442,0,0,0-3.568,0L6.368,18.171a2.515,2.515,0,0,0-.743,1.85v.033a2.515,2.515,0,0,0,.743,1.85l11.4,11.066a2.442,2.442,0,0,0,3.568,0,2.732,2.732,0,0,0,0-3.733L14.486,22.68H32.16a2.585,2.585,0,0,0,2.527-2.643A2.558,2.558,0,0,0,32.168,17.394Z" transform="translate(-5.625 -6.33)" fill="#f0f0f0"/>
</svg>
