<svg xmlns="http://www.w3.org/2000/svg" width="229" height="229" viewBox="0 0 229 229"><g transform="translate(-93 -254)"><circle cx="114.5" cy="114.5" r="114.5" transform="translate(93 254)" fill="#fff" opacity="0.2"/><circle cx="104.5" cy="104.5" r="104.5" transform="translate(103 264)" fill="#fff" opacity="0.4"/><circle cx="91.5" cy="91.5" r="91.5" transform="translate(116 277)" fill="#fff"/><path d="M52.876,38.461l-11.906-5.1a2.551,2.551,0,0,0-2.977.734L32.72,40.534A39.4,39.4,0,0,1,13.884,21.7l6.442-5.273a2.545,2.545,0,0,0,.734-2.977l-5.1-11.906A2.568,2.568,0,0,0,13.033.065L1.977,2.616A2.551,2.551,0,0,0,0,5.1a49.443,49.443,0,0,0,28.83,44.88,48.774,48.774,0,0,0,20.5,4.446,2.551,2.551,0,0,0,2.488-1.977L54.365,41.4a2.582,2.582,0,0,0-1.489-2.934Z" transform="translate(179.572 310.571)" fill="#910b0b"/><text transform="translate(207 414)" fill="#910b0b" font-size="48" font-family="Nunito-Regular, Nunito"><tspan x="-43.2" y="0">112</tspan></text></g></svg>