<svg xmlns="http://www.w3.org/2000/svg" width="49.5" height="87" viewBox="0 0 49.5 87"><g transform="translate(-262.5 -330)"><text transform="translate(286.5 407)" fill="#910b0b" font-size="28" font-family="Nunito-Regular, Nunito"><tspan x="-23.254" y="0">Call</tspan></text><path d="M43.716,31.8,33.873,27.58a2.109,2.109,0,0,0-2.461.606l-4.359,5.326A32.578,32.578,0,0,1,11.479,17.939L16.8,13.58a2.1,2.1,0,0,0,.606-2.461L13.193,1.275A2.123,2.123,0,0,0,10.776.054L1.635,2.163A2.109,2.109,0,0,0,0,4.219,40.878,40.878,0,0,0,23.836,41.325,40.325,40.325,0,0,0,40.782,45a2.109,2.109,0,0,0,2.057-1.635l2.109-9.141A2.135,2.135,0,0,0,43.716,31.8Z" transform="translate(267 330)" fill="#910b0b"/></g></svg>