<svg xmlns="http://www.w3.org/2000/svg" width="52.357" height="41.886" viewBox="0 0 52.357 41.886"><path d="M21.941,31.2l-4.058-4.958a1.961,1.961,0,0,0-2.291-.564L6.43,29.606a1.962,1.962,0,0,0-1.137,2.25l1.963,8.508A1.963,1.963,0,0,0,9.17,41.886a37.73,37.73,0,0,0,22.064-7.109l-6.545-5.056c-.892.532-1.808,1.039-2.749,1.481Zm29.909,6.275L38.867,27.447a37.673,37.673,0,0,0,8.254-23.52A1.961,1.961,0,0,0,45.6,2.013L37.091.049a1.976,1.976,0,0,0-2.25,1.137l-3.927,9.162a1.958,1.958,0,0,0,.564,2.291L36.437,16.7a29.369,29.369,0,0,1-3.763,5.956L3.722.278A1.314,1.314,0,0,0,1.881.507L.278,2.569A1.3,1.3,0,0,0,.507,4.4L48.643,41.6a1.314,1.314,0,0,0,1.841-.229l1.6-2.07a1.3,1.3,0,0,0-.237-1.824Z" transform="translate(-0.002 0.001)" fill="#910b0b"/></svg>