<svg xmlns="http://www.w3.org/2000/svg" width="33.123" height="33.133" viewBox="0 0 33.123 33.133"><path d="M32.731,19.885a3.96,3.96,0,0,1,2.54-3.694,15.7,15.7,0,0,0-1.9-4.576,4.013,4.013,0,0,1-1.611.345A3.951,3.951,0,0,1,28.147,6.4,15.648,15.648,0,0,0,23.58,4.5a3.956,3.956,0,0,1-7.388,0,15.7,15.7,0,0,0-4.576,1.9A3.951,3.951,0,0,1,8,11.96a3.882,3.882,0,0,1-1.611-.345A16.042,16.042,0,0,0,4.5,16.2a3.958,3.958,0,0,1,.008,7.388,15.7,15.7,0,0,0,1.9,4.576,3.952,3.952,0,0,1,5.217,5.217,15.787,15.787,0,0,0,4.576,1.9,3.949,3.949,0,0,1,7.372,0,15.7,15.7,0,0,0,4.576-1.9,3.956,3.956,0,0,1,5.217-5.217,15.787,15.787,0,0,0,1.9-4.576A3.978,3.978,0,0,1,32.731,19.885Zm-12.773,6.4a6.411,6.411,0,1,1,6.411-6.411A6.409,6.409,0,0,1,19.958,26.288Z" transform="translate(-3.324 -3.323)" fill="none" stroke="#910b0b" stroke-width="2"/></svg>