<svg xmlns="http://www.w3.org/2000/svg" width="55.849" height="41.886" viewBox="0 0 55.849 41.886"><path d="M55.913,14.856H47.986a2.36,2.36,0,0,1-1.745-.785c-4.13-4.625-5.687-6.2-7.374-6.2H26.432c-1.7,0-3.374,1.571-7.519,6.21a2.315,2.315,0,0,1-1.731.771h-.6V13.693a1.167,1.167,0,0,0-1.164-1.164H11.641a1.167,1.167,0,0,0-1.164,1.164v1.164H9.387A4.716,4.716,0,0,0,4.5,19.321v25.6a5.035,5.035,0,0,0,4.872,4.843H55.913a4.662,4.662,0,0,0,4.436-4.843v-25.6A4.335,4.335,0,0,0,55.913,14.856ZM40.031,41.108a1.746,1.746,0,0,1-.7.887,12.13,12.13,0,0,1-6.908,2.152,12.267,12.267,0,0,1-8.3-3.3,12.552,12.552,0,0,1-3.927-7.3H17.226a.839.839,0,0,1-.814-.96.523.523,0,0,1,.1-.262l4.581-6.152a.8.8,0,0,1,1.28,0l4.683,6.079a.835.835,0,0,1-.262,1.236.465.465,0,0,1-.276.073H23.494A9.3,9.3,0,0,0,26.389,38.5a8.718,8.718,0,0,0,11.126.713,1.7,1.7,0,0,1,.945-.305,1.588,1.588,0,0,1,1.207.538A1.609,1.609,0,0,1,40.031,41.108Zm8.232-9.817L43.725,37.53a.812.812,0,0,1-1.207.116.386.386,0,0,1-.073-.087l-4.712-6.268a.837.837,0,0,1,.276-1.236.6.6,0,0,1,.276-.073H41.34A9.668,9.668,0,0,0,38.445,24.8a8.731,8.731,0,0,0-11.126-.771,1.64,1.64,0,0,1-.931.291A1.619,1.619,0,0,1,25.2,23.8a1.666,1.666,0,0,1,.32-2.545A12.175,12.175,0,0,1,32.439,19.1a12.33,12.33,0,0,1,8.406,3.243,13.345,13.345,0,0,1,3.811,7.621h3.069a.544.544,0,0,1,.262.073A.877.877,0,0,1,48.263,31.291Z" transform="translate(-4.5 -7.875)" fill="#910b0b"/></svg>