<svg xmlns="http://www.w3.org/2000/svg" width="54.428" height="54.428" viewBox="0 0 54.428 54.428"><path d="M52.876,38.461l-11.906-5.1a2.551,2.551,0,0,0-2.977.734L32.72,40.534A39.4,39.4,0,0,1,13.884,21.7l6.442-5.273a2.545,2.545,0,0,0,.734-2.977l-5.1-11.906A2.568,2.568,0,0,0,13.033.065L1.977,2.616A2.551,2.551,0,0,0,0,5.1a49.443,49.443,0,0,0,28.83,44.88,48.774,48.774,0,0,0,20.5,4.446,2.551,2.551,0,0,0,2.488-1.977L54.365,41.4a2.582,2.582,0,0,0-1.489-2.934Z" transform="translate(0 0)" fill="#910b0b"/></svg>