<svg xmlns="http://www.w3.org/2000/svg" width="70.019" height="59.269" viewBox="0 0 70.019 59.269"><g transform="translate(-3884.65 4775.269)"><path d="M49.8,3H8.2A5.193,5.193,0,0,0,3.026,8.2L3,55,13.4,44.6H49.8A5.215,5.215,0,0,0,55,39.4V8.2A5.215,5.215,0,0,0,49.8,3ZM13.4,21.2H44.6v5.2H13.4Zm20.8,13H13.4V29H34.2ZM44.6,18.6H13.4V13.4H44.6Z" transform="translate(3892 -4771)" fill="#910b0b"/><g transform="matrix(0.788, 0.616, -0.616, 0.788, 3892.697, -4771.058)" fill="#910b0b" stroke="#fff" stroke-width="3"><rect width="73.3" height="6.231" rx="2" stroke="none"/><rect x="-1.5" y="-1.5" width="76.3" height="9.231" rx="3.5" fill="none"/></g></g></svg>