<svg xmlns="http://www.w3.org/2000/svg" width="67.258" height="45.339" viewBox="0 0 67.258 45.339"><g transform="translate(-1439.371 -1256.071)"><g transform="translate(107 1203)"><path d="M35.879,7.383A36.162,36.162,0,0,0,2.25,30.052a36.278,36.278,0,0,0,67.258,0A36.162,36.162,0,0,0,35.879,7.383Zm0,37.787A15.119,15.119,0,1,1,51.162,30.052,15.244,15.244,0,0,1,35.879,45.17Zm0-24.186a9.068,9.068,0,1,0,9.173,9.068A9.15,9.15,0,0,0,35.879,20.985Z" transform="translate(1330.121 45.688)" fill="#910b0b"/></g></g></svg>