<svg xmlns="http://www.w3.org/2000/svg" width="64.621" height="55.377" viewBox="0 0 64.621 55.377"><g transform="translate(-1460.246)"><g transform="translate(126.557 -51)"><path d="M34.568,16.152a14.648,14.648,0,0,1,14.7,14.58,14.025,14.025,0,0,1-1.053,5.336l8.581,8.508a34.475,34.475,0,0,0,10.08-13.844A34.8,34.8,0,0,0,22.843,10.9l6.345,6.3A14.53,14.53,0,0,1,34.568,16.152ZM5.192,8.206,11.9,14.854,13.253,16.2a34.311,34.311,0,0,0-11,14.537A34.852,34.852,0,0,0,47.431,50.143l1.24,1.226,8.609,8.508,3.735-3.706L8.913,4.5ZM21.43,24.315l4.557,4.514a8.261,8.261,0,0,0-.231,1.889,8.767,8.767,0,0,0,8.811,8.739,8.288,8.288,0,0,0,1.9-.231l4.557,4.514A14.618,14.618,0,0,1,19.873,30.7,14.4,14.4,0,0,1,21.43,24.315Zm12.662-2.264,9.258,9.186.058-.461A8.767,8.767,0,0,0,34.6,22.036Z" transform="translate(1331.439 46.5)" fill="#910b0b"/></g></g></svg>