<svg xmlns="http://www.w3.org/2000/svg" width="14.715" height="19.13" viewBox="0 0 14.715 19.13"><path d="M19.626,10h-1.1V7.849a4.415,4.415,0,1,0-8.829-.06V10h-1.1A1.845,1.845,0,0,0,6.75,11.836v8.829A1.845,1.845,0,0,0,8.589,22.5H19.626a1.845,1.845,0,0,0,1.839-1.839V11.836A1.845,1.845,0,0,0,19.626,10Zm-4.874,5.739V18.9a.659.659,0,0,1-.612.662.645.645,0,0,1-.676-.644V15.736a1.472,1.472,0,1,1,1.288,0ZM17.235,10H10.981V7.789a3.127,3.127,0,0,1,6.254,0Z" transform="translate(-6.75 -3.375)" fill="#e20b17"/></svg>