<svg xmlns="http://www.w3.org/2000/svg" viewBox="0 0 72 72"><defs><style>.cls-1{fill:#e30b18;}.cls-2{fill:#fff;}.cls-3{fill:none;}</style></defs><g id="Laag_2" data-name="Laag 2"><g id="Laag_1-2" data-name="Laag 1"><path class="cls-1" d="M45.88,66.49c.62-3.19.33-6.29.3-9.39a6,6,0,0,0-3.66-5.52A5.29,5.29,0,0,0,40.11,51c-2.72,0-5.45,0-8.17,0a6.19,6.19,0,0,0-5.1,2.87,5.47,5.47,0,0,0-.91,3.16q0,3.75,0,7.5a16.19,16.19,0,0,0,.21,1.84s-.06,0-.08,0a23.33,23.33,0,0,1-5.35-.14,13,13,0,0,1-4.23-1.62,12.17,12.17,0,0,1-5-5.63,11.62,11.62,0,0,1-1-4.86V12.85A11.14,11.14,0,0,1,11,9.22a12.06,12.06,0,0,1,5.12-6.68A14.59,14.59,0,0,1,20.63.7,8.86,8.86,0,0,1,22.55.52c3.35,0,6.69,0,10,0,5.45,0,10.9,0,16.34,0a12.92,12.92,0,0,1,4.89.88A12.34,12.34,0,0,1,61.72,13V54.06a12.24,12.24,0,0,1-8.53,11.76,13.17,13.17,0,0,1-4.36.68C47.89,66.48,46.92,66.49,45.88,66.49Zm.43-40.66v-11A6.63,6.63,0,0,0,46,12.67a6.1,6.1,0,0,0-5.47-4c-2.91,0-5.83,0-8.74,0a5.81,5.81,0,0,0-4.59,2.44A5.72,5.72,0,0,0,26,14.71V37.15a5.81,5.81,0,0,0,2.09,4.25A6.68,6.68,0,0,0,32.6,43c2.27,0,4.54,0,6.8,0a11.5,11.5,0,0,0,2.41-.28,5.82,5.82,0,0,0,4.48-5.45c0-3.79,0-7.59,0-11.39Z"/><path class="cls-2" d="M46.31,25.83c0,3.8,0,7.6,0,11.39a5.83,5.83,0,0,1-4.49,5.45,11.33,11.33,0,0,1-2.4.28c-2.27,0-4.54,0-6.81,0a6.7,6.7,0,0,1-4.47-1.55,5.8,5.8,0,0,1-2.08-4.25V14.71a5.66,5.66,0,0,1,1.15-3.58A5.7,5.7,0,0,1,31.78,8.7c2.91,0,5.83,0,8.74,0a6.07,6.07,0,0,1,5.47,4,6.63,6.63,0,0,1,.32,2.11Q46.29,20.31,46.31,25.83Z"/><path class="cls-2" d="M32.37,50.91h7.39a6.39,6.39,0,0,1,6.49,6.3v7.17a6.4,6.4,0,0,1-6.49,6.31H32.37a6.4,6.4,0,0,1-6.5-6.31V57.21A6.4,6.4,0,0,1,32.37,50.91Z"/><rect class="cls-3" width="72" height="72"/></g></g></svg>